<svg xmlns="http://www.w3.org/2000/svg" xmlns:xlink="http://www.w3.org/1999/xlink" preserveAspectRatio="xMidYMid" width="640" height="128" viewBox="0 0 640 128">
  <defs>
    <style>
      .cls-1 {
        fill: #e5e5e5;
        fill-rule: evenodd;
      }
    </style>
  </defs>
  <g>
    <path d="M602.000,56.000 L602.000,50.000 L638.000,50.000 L638.000,56.000 L602.000,56.000 ZM558.727,111.819 L558.727,119.999 L562.453,119.999 C564.514,119.999 566.182,121.787 566.182,123.999 C566.182,126.207 564.514,127.999 562.453,127.999 L558.727,127.999 L551.269,127.999 L547.544,127.999 C545.483,127.999 543.816,126.207 543.816,123.999 C543.816,121.787 545.483,119.999 547.544,119.999 L551.269,119.999 L551.269,111.819 C532.870,110.035 517.289,95.191 513.998,75.999 L521.453,75.999 C524.847,92.023 539.036,103.999 554.998,103.999 C570.961,103.999 585.151,92.023 588.544,75.999 L595.998,75.999 C592.707,95.191 577.131,110.039 558.727,111.819 ZM554.998,95.999 C540.587,95.999 528.907,83.463 528.907,67.999 L528.907,27.999 C528.907,12.539 540.587,-0.001 554.998,-0.001 C569.407,-0.001 581.090,12.539 581.090,27.999 L581.090,67.999 C581.090,83.463 569.407,95.999 554.998,95.999 ZM632.000,74.000 L602.000,74.000 L602.000,68.000 L632.000,68.000 L632.000,74.000 ZM626.000,92.000 L602.000,92.000 L602.000,86.000 L626.000,86.000 L626.000,92.000 ZM620.000,110.000 L602.000,110.000 L602.000,104.000 L620.000,104.000 L620.000,110.000 ZM614.000,128.000 L602.000,128.000 L602.000,122.000 L614.000,122.000 L614.000,128.000 Z" class="cls-1"/>
    <path d="M474.000,74.000 L474.000,68.000 L504.000,68.000 L504.000,74.000 L474.000,74.000 ZM430.727,111.819 L430.727,119.999 L434.453,119.999 C436.514,119.999 438.182,121.787 438.182,123.999 C438.182,126.207 436.514,127.999 434.453,127.999 L430.727,127.999 L423.269,127.999 L419.544,127.999 C417.483,127.999 415.816,126.207 415.816,123.999 C415.816,121.787 417.483,119.999 419.544,119.999 L423.269,119.999 L423.269,111.819 C404.870,110.035 389.289,95.191 385.998,75.999 L393.453,75.999 C396.847,92.023 411.036,103.999 426.998,103.999 C442.961,103.999 457.151,92.023 460.544,75.999 L467.998,75.999 C464.707,95.191 449.131,110.039 430.727,111.819 ZM426.998,95.999 C412.587,95.999 400.907,83.463 400.907,67.999 L400.907,27.999 C400.907,12.539 412.587,-0.001 426.998,-0.001 C441.407,-0.001 453.090,12.539 453.090,27.999 L453.090,67.999 C453.090,83.463 441.407,95.999 426.998,95.999 ZM498.000,92.000 L474.000,92.000 L474.000,86.000 L498.000,86.000 L498.000,92.000 ZM492.000,110.000 L474.000,110.000 L474.000,104.000 L492.000,104.000 L492.000,110.000 ZM486.000,128.000 L474.000,128.000 L474.000,122.000 L486.000,122.000 L486.000,128.000 Z" class="cls-1"/>
    <path d="M346.000,92.000 L346.000,86.000 L370.000,86.000 L370.000,92.000 L346.000,92.000 ZM302.727,111.819 L302.727,119.999 L306.453,119.999 C308.514,119.999 310.182,121.787 310.182,123.999 C310.182,126.207 308.514,127.999 306.453,127.999 L302.727,127.999 L295.269,127.999 L291.544,127.999 C289.483,127.999 287.816,126.207 287.816,123.999 C287.816,121.787 289.483,119.999 291.544,119.999 L295.269,119.999 L295.269,111.819 C276.870,110.035 261.289,95.191 257.998,75.999 L265.453,75.999 C268.847,92.023 283.036,103.999 298.998,103.999 C314.961,103.999 329.151,92.023 332.544,75.999 L339.998,75.999 C336.707,95.191 321.131,110.039 302.727,111.819 ZM298.998,95.999 C284.587,95.999 272.907,83.463 272.907,67.999 L272.907,27.999 C272.907,12.539 284.587,-0.001 298.998,-0.001 C313.407,-0.001 325.090,12.539 325.090,27.999 L325.090,67.999 C325.090,83.463 313.407,95.999 298.998,95.999 ZM364.000,110.000 L346.000,110.000 L346.000,104.000 L364.000,104.000 L364.000,110.000 ZM358.000,128.000 L346.000,128.000 L346.000,122.000 L358.000,122.000 L358.000,128.000 Z" class="cls-1"/>
    <path d="M218.000,110.000 L218.000,104.000 L236.000,104.000 L236.000,110.000 L218.000,110.000 ZM174.727,111.819 L174.727,119.999 L178.453,119.999 C180.514,119.999 182.182,121.787 182.182,123.999 C182.182,126.207 180.514,127.999 178.453,127.999 L174.727,127.999 L167.269,127.999 L163.544,127.999 C161.483,127.999 159.816,126.207 159.816,123.999 C159.816,121.787 161.483,119.999 163.544,119.999 L167.269,119.999 L167.269,111.819 C148.870,110.035 133.289,95.191 129.998,75.999 L137.453,75.999 C140.847,92.023 155.036,103.999 170.998,103.999 C186.961,103.999 201.151,92.023 204.544,75.999 L211.998,75.999 C208.707,95.191 193.131,110.039 174.727,111.819 ZM170.998,95.999 C156.587,95.999 144.907,83.463 144.907,67.999 L144.907,27.999 C144.907,12.539 156.587,-0.001 170.998,-0.001 C185.407,-0.001 197.090,12.539 197.090,27.999 L197.090,67.999 C197.090,83.463 185.407,95.999 170.998,95.999 ZM230.000,128.000 L218.000,128.000 L218.000,122.000 L230.000,122.000 L230.000,128.000 Z" class="cls-1"/>
    <path d="M90.000,128.000 L90.000,122.000 L102.000,122.000 L102.000,128.000 L90.000,128.000 ZM46.727,111.819 L46.727,119.999 L50.453,119.999 C52.514,119.999 54.182,121.787 54.182,123.999 C54.182,126.207 52.514,127.999 50.453,127.999 L46.727,127.999 L39.269,127.999 L35.544,127.999 C33.483,127.999 31.816,126.207 31.816,123.999 C31.816,121.787 33.483,119.999 35.544,119.999 L39.269,119.999 L39.269,111.819 C20.870,110.035 5.289,95.191 1.998,75.999 L9.453,75.999 C12.847,92.023 27.036,103.999 42.998,103.999 C58.961,103.999 73.151,92.023 76.544,75.999 L83.998,75.999 C80.707,95.191 65.131,110.039 46.727,111.819 ZM42.998,95.999 C28.587,95.999 16.907,83.463 16.907,67.999 L16.907,27.999 C16.907,12.539 28.587,-0.001 42.998,-0.001 C57.407,-0.001 69.090,12.539 69.090,27.999 L69.090,67.999 C69.090,83.463 57.407,95.999 42.998,95.999 Z" class="cls-1"/>
  </g>
</svg>
