<svg xmlns="http://www.w3.org/2000/svg" xmlns:xlink="http://www.w3.org/1999/xlink" preserveAspectRatio="xMidYMid" width="440" height="110" viewBox="0 0 440 110">
  <defs>
    <style>
      .cls-1 {
        fill: #fff;
        filter: url(#outer-glow-1);
      }

      .cls-2, .cls-3, .cls-4, .cls-5 {
        fill: #1fb5ff;
        fill-rule: evenodd;
      }

      .cls-3 {
        opacity: 0.8;
      }

      .cls-4 {
        opacity: 0.5;
      }

      .cls-5 {
        opacity: 0.2;
      }
    </style>

    <filter id="outer-glow-1" filterUnits="userSpaceOnUse">
      <feGaussianBlur stdDeviation="3.333" in="SourceAlpha"/>
      <feComposite/>
      <feComposite/>
      <feComposite result="outerGlowBlur"/>
      <feFlood flood-color="#cecece" flood-opacity="0.44"/>
      <feComposite operator="in" in2="outerGlowBlur"/>
      <feBlend in2="SourceGraphic" result="outerGlow"/>
      <feComposite in="SourceGraphic" result="shadowed"/>
    </filter>
  </defs>
  <g>
    <circle cx="55" cy="55" r="40" class="cls-1"/>
    <path d="M56.000,68.449 L56.000,70.749 L56.999,70.749 C57.552,70.749 58.000,71.252 58.000,71.874 C58.000,72.495 57.552,72.999 56.999,72.999 L56.000,72.999 L53.999,72.999 L52.999,72.999 C52.447,72.999 51.999,72.495 51.999,71.874 C51.999,71.252 52.447,70.749 52.999,70.749 L53.999,70.749 L53.999,68.449 C49.062,67.947 44.882,63.772 43.999,58.374 L45.999,58.374 C46.910,62.881 50.717,66.250 54.999,66.250 C59.282,66.250 63.089,62.881 64.000,58.374 L65.999,58.374 C65.116,63.772 60.937,67.948 56.000,68.449 ZM54.999,63.999 C51.133,63.999 47.999,60.474 47.999,56.124 L47.999,44.874 C47.999,40.526 51.133,36.999 54.999,36.999 C58.865,36.999 62.000,40.526 62.000,44.874 L62.000,56.124 C62.000,60.474 58.865,63.999 54.999,63.999 ZM59.719,44.183 C59.719,41.579 57.608,39.469 55.004,39.469 L54.996,39.469 C52.392,39.469 50.281,41.579 50.281,44.183 L50.281,56.817 C50.281,59.421 52.392,61.531 54.996,61.531 L55.004,61.531 C57.608,61.531 59.719,59.421 59.719,56.817 L59.719,44.183 Z" class="cls-2"/>
  </g>
  <g>
    <circle cx="165" cy="55" r="40" class="cls-1"/>
    <path d="M165.000,96.000 C142.356,96.000 124.000,77.644 124.000,55.000 C124.000,32.356 142.356,14.000 165.000,14.000 C187.644,14.000 206.000,32.356 206.000,55.000 C206.000,77.644 187.644,96.000 165.000,96.000 ZM165.000,15.000 C142.909,15.000 125.000,32.909 125.000,55.000 C125.000,77.091 142.909,95.000 165.000,95.000 C187.091,95.000 205.000,77.091 205.000,55.000 C205.000,32.909 187.091,15.000 165.000,15.000 Z" class="cls-3"/>
    <path d="M166.000,68.449 L166.000,70.749 L166.999,70.749 C167.552,70.749 168.000,71.252 168.000,71.874 C168.000,72.495 167.552,72.999 166.999,72.999 L166.000,72.999 L163.999,72.999 L162.999,72.999 C162.447,72.999 161.999,72.495 161.999,71.874 C161.999,71.252 162.447,70.749 162.999,70.749 L163.999,70.749 L163.999,68.449 C159.062,67.947 154.882,63.772 153.999,58.374 L155.999,58.374 C156.910,62.881 160.717,66.250 164.999,66.250 C169.282,66.250 173.089,62.881 174.000,58.374 L175.999,58.374 C175.116,63.772 170.937,67.948 166.000,68.449 ZM164.999,63.999 C161.133,63.999 157.999,60.474 157.999,56.124 L157.999,44.874 C157.999,40.526 161.133,36.999 164.999,36.999 C168.865,36.999 172.000,40.526 172.000,44.874 L172.000,56.124 C172.000,60.474 168.865,63.999 164.999,63.999 ZM169.719,44.183 C169.719,41.579 167.608,39.469 165.004,39.469 L164.996,39.469 C162.392,39.469 160.281,41.579 160.281,44.183 L160.281,56.817 C160.281,59.421 162.392,61.531 164.996,61.531 L165.004,61.531 C167.608,61.531 169.719,59.421 169.719,56.817 L169.719,44.183 Z" class="cls-2"/>
  </g>
  <g>
    <circle cx="275" cy="55" r="40" class="cls-1"/>
    <path d="M275.000,103.000 C248.490,103.000 227.000,81.510 227.000,55.000 C227.000,28.490 248.490,7.000 275.000,7.000 C301.510,7.000 323.000,28.490 323.000,55.000 C323.000,81.510 301.510,103.000 275.000,103.000 ZM275.000,8.000 C249.043,8.000 228.000,29.043 228.000,55.000 C228.000,80.957 249.043,102.000 275.000,102.000 C300.957,102.000 322.000,80.957 322.000,55.000 C322.000,29.043 300.957,8.000 275.000,8.000 Z" class="cls-4"/>
    <path d="M275.000,96.000 C252.356,96.000 234.000,77.644 234.000,55.000 C234.000,32.356 252.356,14.000 275.000,14.000 C297.644,14.000 316.000,32.356 316.000,55.000 C316.000,77.644 297.644,96.000 275.000,96.000 ZM275.000,15.000 C252.909,15.000 235.000,32.909 235.000,55.000 C235.000,77.091 252.909,95.000 275.000,95.000 C297.091,95.000 315.000,77.091 315.000,55.000 C315.000,32.909 297.091,15.000 275.000,15.000 Z" class="cls-3"/>
    <path d="M276.000,68.449 L276.000,70.749 L276.999,70.749 C277.552,70.749 278.000,71.252 278.000,71.874 C278.000,72.495 277.552,72.999 276.999,72.999 L276.000,72.999 L273.999,72.999 L272.999,72.999 C272.447,72.999 271.999,72.495 271.999,71.874 C271.999,71.252 272.447,70.749 272.999,70.749 L273.999,70.749 L273.999,68.449 C269.062,67.947 264.882,63.772 263.999,58.374 L265.999,58.374 C266.910,62.881 270.717,66.250 274.999,66.250 C279.282,66.250 283.089,62.881 284.000,58.374 L285.999,58.374 C285.116,63.772 280.937,67.948 276.000,68.449 ZM274.999,63.999 C271.133,63.999 267.999,60.474 267.999,56.124 L267.999,44.874 C267.999,40.526 271.133,36.999 274.999,36.999 C278.865,36.999 282.000,40.526 282.000,44.874 L282.000,56.124 C282.000,60.474 278.865,63.999 274.999,63.999 ZM279.719,44.183 C279.719,41.579 277.608,39.469 275.004,39.469 L274.996,39.469 C272.392,39.469 270.281,41.579 270.281,44.183 L270.281,56.817 C270.281,59.421 272.392,61.531 274.996,61.531 L275.004,61.531 C277.608,61.531 279.719,59.421 279.719,56.817 L279.719,44.183 Z" class="cls-2"/>
  </g>
  <g>
    <circle cx="385" cy="55" r="40" class="cls-1"/>
    <path d="M385.000,110.000 C354.624,110.000 330.000,85.376 330.000,55.000 C330.000,24.624 354.624,-0.000 385.000,-0.000 C415.376,-0.000 440.000,24.624 440.000,55.000 C440.000,85.376 415.376,110.000 385.000,110.000 ZM385.000,1.000 C355.177,1.000 331.000,25.177 331.000,55.000 C331.000,84.823 355.177,109.000 385.000,109.000 C414.823,109.000 439.000,84.823 439.000,55.000 C439.000,25.177 414.823,1.000 385.000,1.000 Z" class="cls-5"/>
    <path d="M385.000,103.000 C358.490,103.000 337.000,81.510 337.000,55.000 C337.000,28.490 358.490,7.000 385.000,7.000 C411.510,7.000 433.000,28.490 433.000,55.000 C433.000,81.510 411.510,103.000 385.000,103.000 ZM385.000,8.000 C359.043,8.000 338.000,29.043 338.000,55.000 C338.000,80.957 359.043,102.000 385.000,102.000 C410.957,102.000 432.000,80.957 432.000,55.000 C432.000,29.043 410.957,8.000 385.000,8.000 Z" class="cls-4"/>
    <path d="M385.000,96.000 C362.356,96.000 344.000,77.644 344.000,55.000 C344.000,32.356 362.356,14.000 385.000,14.000 C407.644,14.000 426.000,32.356 426.000,55.000 C426.000,77.644 407.644,96.000 385.000,96.000 ZM385.000,15.000 C362.909,15.000 345.000,32.909 345.000,55.000 C345.000,77.091 362.909,95.000 385.000,95.000 C407.091,95.000 425.000,77.091 425.000,55.000 C425.000,32.909 407.091,15.000 385.000,15.000 Z" class="cls-3"/>
    <path d="M386.000,68.449 L386.000,70.749 L386.999,70.749 C387.552,70.749 388.000,71.252 388.000,71.874 C388.000,72.495 387.552,72.999 386.999,72.999 L386.000,72.999 L383.999,72.999 L382.999,72.999 C382.447,72.999 381.999,72.495 381.999,71.874 C381.999,71.252 382.447,70.749 382.999,70.749 L383.999,70.749 L383.999,68.449 C379.062,67.947 374.882,63.772 373.999,58.374 L375.999,58.374 C376.910,62.881 380.717,66.250 384.999,66.250 C389.282,66.250 393.089,62.881 394.000,58.374 L395.999,58.374 C395.116,63.772 390.937,67.948 386.000,68.449 ZM384.999,63.999 C381.133,63.999 377.999,60.474 377.999,56.124 L377.999,44.874 C377.999,40.526 381.133,36.999 384.999,36.999 C388.865,36.999 392.000,40.526 392.000,44.874 L392.000,56.124 C392.000,60.474 388.865,63.999 384.999,63.999 ZM389.719,44.183 C389.719,41.579 387.608,39.469 385.004,39.469 L384.996,39.469 C382.392,39.469 380.281,41.579 380.281,44.183 L380.281,56.817 C380.281,59.421 382.392,61.531 384.996,61.531 L385.004,61.531 C387.608,61.531 389.719,59.421 389.719,56.817 L389.719,44.183 Z" class="cls-2"/>
  </g>
</svg>
